<svg width="61" height="60" viewBox="0 0 61 60" fill="#000" xmlns="http://www.w3.org/2000/svg">
<path d="M30.0833 0C13.5153 0 0.083252 13.4314 0.083252 30C0.083252 46.5686 13.5153 60 30.0833 60C46.6512 60 60.0832 46.5686 60.0832 30C60.0832 13.4314 46.6512 0 30.0833 0ZM45.3008 33.2446C46.6991 34.6103 48.1784 35.8957 49.4336 37.4026C49.9897 38.0692 50.5139 38.7585 50.9129 39.5337C51.4825 40.6392 50.9682 41.8515 49.9787 41.9171L43.8326 41.9159C42.2453 42.0473 40.9821 41.4071 39.9171 40.3218C39.067 39.457 38.2782 38.5332 37.4594 37.6389C37.1249 37.2718 36.7726 36.9262 36.3527 36.6543C35.5149 36.1093 34.7869 36.2762 34.3069 37.1515C33.8177 38.0421 33.706 39.0292 33.6593 40.0205C33.5924 41.4697 33.1554 41.8484 31.7013 41.9165C28.5941 42.062 25.646 41.5906 22.906 40.0241C20.4888 38.6425 18.6179 36.6924 16.9876 34.4845C13.813 30.1805 11.3817 25.4566 9.19711 20.597C8.70545 19.5026 9.06514 18.917 10.2725 18.8943C12.2784 18.8557 14.2844 18.8606 16.2903 18.8925C17.1067 18.9054 17.6468 19.3725 17.9605 20.1428C19.0445 22.8098 20.3734 25.3473 22.0386 27.7007C22.4824 28.3274 22.9354 28.9522 23.5805 29.3948C24.2926 29.8834 24.8352 29.7219 25.1709 28.9271C25.3858 28.4219 25.4784 27.8817 25.5251 27.3404C25.6847 25.486 25.7037 23.6323 25.4275 21.7854C25.2556 20.6296 24.6056 19.8832 23.4535 19.6647C22.8667 19.5536 22.9526 19.3363 23.238 19.0011C23.7334 18.4217 24.1974 18.0632 25.1249 18.0632L32.0689 18.062C33.1634 18.2768 33.4089 18.7679 33.5574 19.8703L33.5636 27.5871C33.5507 28.0137 33.7778 29.2782 34.5438 29.5574C35.1576 29.76 35.5627 29.2677 35.9298 28.8792C37.5951 27.112 38.7816 25.0263 39.8441 22.8675C40.313 21.9155 40.7175 20.9303 41.1104 19.9433C41.4025 19.2135 41.8568 18.8544 42.6805 18.8667L49.3673 18.8747C49.5644 18.8747 49.7645 18.8765 49.9597 18.9103C51.0866 19.103 51.3954 19.5879 51.0467 20.6873C50.498 22.4145 49.4318 23.8533 48.3895 25.2958C47.2724 26.8401 46.081 28.3304 44.9749 29.8815C43.9584 31.2994 44.0389 32.0133 45.3008 33.2446Z" fill="#7C7C7C"/>
</svg>
